<?xml version="1.0" encoding="UTF-8" standalone="no"?>
<!-- Svg Vector Icons : http://www.onlinewebfonts.com/icon -->

<svg
   xmlns:dc="http://purl.org/dc/elements/1.1/"
   xmlns:cc="http://creativecommons.org/ns#"
   xmlns:rdf="http://www.w3.org/1999/02/22-rdf-syntax-ns#"
   xmlns:svg="http://www.w3.org/2000/svg"
   xmlns="http://www.w3.org/2000/svg"
   xmlns:sodipodi="http://sodipodi.sourceforge.net/DTD/sodipodi-0.dtd"
   xmlns:inkscape="http://www.inkscape.org/namespaces/inkscape"
   version="1.1"
   x="0px"
   y="0px"
   viewBox="0 0 1000 1000"
   enable-background="new 0 0 1000 1000"
   xml:space="preserve"
   id="svg906"
   sodipodi:docname="priority_unselected.svg"
   inkscape:version="0.92.3 (unknown)"><defs
   id="defs910" /><sodipodi:namedview
   pagecolor="#ffffff"
   bordercolor="#666666"
   borderopacity="1"
   objecttolerance="10"
   gridtolerance="10"
   guidetolerance="10"
   inkscape:pageopacity="0"
   inkscape:pageshadow="2"
   inkscape:window-width="1366"
   inkscape:window-height="714"
   id="namedview908"
   showgrid="false"
   inkscape:zoom="0.527"
   inkscape:cx="500"
   inkscape:cy="500"
   inkscape:window-x="0"
   inkscape:window-y="0"
   inkscape:window-maximized="1"
   inkscape:current-layer="g904" />
<metadata
   id="metadata892"> Svg Vector Icons : http://www.onlinewebfonts.com/icon <rdf:RDF><cc:Work
     rdf:about=""><dc:format>image/svg+xml</dc:format><dc:type
       rdf:resource="http://purl.org/dc/dcmitype/StillImage" /><dc:title></dc:title></cc:Work></rdf:RDF></metadata>
<g
   id="g904"
   style="fill:#1a1423;fill-opacity:1"
   transform="translate(-185.95825,-87.286528)"><path
     d="M 815.7,461.6 H 472.1 c -16.2,0 -29.4,13.1 -29.4,29.4 0,16.2 13.1,29.4 29.4,29.4 h 343.6 c 16.2,0 29.4,-13.1 29.4,-29.4 0,-16.3 -13.2,-29.4 -29.4,-29.4 z"
     id="path894"
     style="fill:#291a32;fill-opacity:1"
     inkscape:connector-curvature="0" /><path
     d="M 960.6,254 H 472.1 c -16.2,0 -29.4,13.1 -29.4,29.4 0,16.2 13.1,29.4 29.4,29.4 h 488.6 c 16.2,0 29.4,-13.1 29.4,-29.4 C 990,267.1 976.9,254 960.6,254 Z"
     id="path896"
     style="fill:#291a32;fill-opacity:1"
     inkscape:connector-curvature="0" /><path
     d="M 728.7,669.2 H 472.1 c -16.2,0 -29.4,13.1 -29.4,29.4 0,16.3 13.1,29.4 29.4,29.4 h 256.6 c 16.2,0 29.4,-13.1 29.4,-29.4 0,-16.3 -13.2,-29.4 -29.4,-29.4 z"
     id="path898"
     style="fill:#291a32;fill-opacity:1"
     inkscape:connector-curvature="0" /><path
     d="M 627.2,862.1 H 472.1 c -16.2,0 -29.4,13.1 -29.4,29.4 0,16.2 13.1,29.4 29.4,29.4 h 155.1 c 16.2,0 29.4,-13.1 29.4,-29.4 -0.1,-16.2 -13.2,-29.4 -29.4,-29.4 z"
     id="path900"
     style="fill:#291a32;fill-opacity:1"
     inkscape:connector-curvature="0" /></g>
</svg>