<?xml version="1.0" encoding="UTF-8" standalone="no"?>
<!-- Svg Vector Icons : http://www.onlinewebfonts.com/icon -->

<svg
   xmlns:dc="http://purl.org/dc/elements/1.1/"
   xmlns:cc="http://creativecommons.org/ns#"
   xmlns:rdf="http://www.w3.org/1999/02/22-rdf-syntax-ns#"
   xmlns:svg="http://www.w3.org/2000/svg"
   xmlns="http://www.w3.org/2000/svg"
   xmlns:sodipodi="http://sodipodi.sourceforge.net/DTD/sodipodi-0.dtd"
   xmlns:inkscape="http://www.inkscape.org/namespaces/inkscape"
   version="1.1"
   x="0px"
   y="0px"
   viewBox="0 0 1000 1000"
   enable-background="new 0 0 1000 1000"
   xml:space="preserve"
   id="svg10"
   sodipodi:docname="signout.svg"
   inkscape:version="0.92.3 (unknown)"><defs
   id="defs14" /><sodipodi:namedview
   pagecolor="#ffffff"
   bordercolor="#666666"
   borderopacity="1"
   objecttolerance="10"
   gridtolerance="10"
   guidetolerance="10"
   inkscape:pageopacity="0"
   inkscape:pageshadow="2"
   inkscape:window-width="738"
   inkscape:window-height="480"
   id="namedview12"
   showgrid="false"
   inkscape:zoom="0.236"
   inkscape:cx="500"
   inkscape:cy="500"
   inkscape:window-x="0"
   inkscape:window-y="0"
   inkscape:window-maximized="0"
   inkscape:current-layer="g8" />
<metadata
   id="metadata2"> Svg Vector Icons : http://www.onlinewebfonts.com/icon <rdf:RDF><cc:Work
     rdf:about=""><dc:format>image/svg+xml</dc:format><dc:type
       rdf:resource="http://purl.org/dc/dcmitype/StillImage" /><dc:title></dc:title></cc:Work></rdf:RDF></metadata>
<g
   id="g8"><path
     d="M696.5,234.1V68.9c0-26.4-21.6-47.9-47.9-47.9H57.9C31.6,21,10,42.5,10,68.9v676.8c0,17.5,10.4,34.3,25.5,42.3l364,188.4c16,7.9,35.1-3.2,35.1-21.6V771.3h213.9c26.4,0,47.9-21.6,47.9-47.9V461.6h-95.8v190c0,13.6-10.3,24-23.9,24H435.5V269.2c0-17.5-10.4-34.3-25.6-42.3L195.2,116.7h381.6c13.6,0,23.9,10.4,23.9,24v94.2h95.8L696.5,234.1L696.5,234.1L696.5,234.1z"
     id="path4"
     style="fill:#50040e;fill-opacity:1" /><path
     d="M819.4,155.8l155.7,155.7c19.9,20,19.9,49.5,0,69.4L819.4,536.6c-20,19.9-50.3,20.7-70.3,0.8c-19.1-19.2-16.8-51.1,1.6-70.3l70.2-69.4H548.8c-13.6,0-27.2-5.6-35.9-16c-22.4-23.9-16.8-66.3,12-82.2c7.2-4,16-6.4,24-6.4H821c0,0-69.4-69.5-70.2-69.5c-18.4-18.3-20.7-51.1-1.6-69.4C768.3,135.1,799.4,135.9,819.4,155.8"
     id="path6"
     style="fill:#50040e;fill-opacity:1" /></g>
</svg>